{
	"patcher" : 	{
		"fileversion" : 1,
		"appversion" : 		{
			"major" : 8,
			"minor" : 6,
			"revision" : 2,
			"architecture" : "x64",
			"modernui" : 1
		}
,
		"classnamespace" : "box",
		"rect" : [ 727.0, 120.0, 1057.0, 1204.0 ],
		"bglocked" : 0,
		"openinpresentation" : 0,
		"default_fontsize" : 12.0,
		"default_fontface" : 0,
		"default_fontname" : "Arial",
		"gridonopen" : 1,
		"gridsize" : [ 15.0, 15.0 ],
		"gridsnaponopen" : 1,
		"objectsnaponopen" : 1,
		"statusbarvisible" : 2,
		"toolbarvisible" : 1,
		"lefttoolbarpinned" : 0,
		"toptoolbarpinned" : 0,
		"righttoolbarpinned" : 0,
		"bottomtoolbarpinned" : 0,
		"toolbars_unpinned_last_save" : 0,
		"tallnewobj" : 0,
		"boxanimatetime" : 200,
		"enablehscroll" : 1,
		"enablevscroll" : 1,
		"devicewidth" : 0.0,
		"description" : "",
		"digest" : "",
		"tags" : "",
		"style" : "",
		"subpatcher_template" : "",
		"assistshowspatchername" : 0,
		"boxes" : [ 			{
				"box" : 				{
					"id" : "obj-41",
					"maxclass" : "comment",
					"numinlets" : 1,
					"numoutlets" : 0,
					"patching_rect" : [ 37.5, 88.0, 263.0, 20.0 ],
					"text" : "4. Start reading by clicking 'X'"
				}

			}
, 			{
				"box" : 				{
					"id" : "obj-39",
					"maxclass" : "comment",
					"numinlets" : 1,
					"numoutlets" : 0,
					"patching_rect" : [ 37.5, 64.0, 263.0, 20.0 ],
					"text" : "3. Change 'port d' to the port letter you need"
				}

			}
, 			{
				"box" : 				{
					"id" : "obj-37",
					"maxclass" : "comment",
					"numinlets" : 1,
					"numoutlets" : 0,
					"patching_rect" : [ 37.5, 36.0, 263.0, 20.0 ],
					"text" : "2. Press 'print' and look for the port letter"
				}

			}
, 			{
				"box" : 				{
					"id" : "obj-33",
					"maxclass" : "message",
					"numinlets" : 2,
					"numoutlets" : 1,
					"outlettype" : [ "" ],
					"patching_rect" : [ 76.0, 128.0, 35.0, 22.0 ],
					"text" : "open"
				}

			}
, 			{
				"box" : 				{
					"id" : "obj-30",
					"maxclass" : "comment",
					"numinlets" : 1,
					"numoutlets" : 0,
					"patching_rect" : [ 37.5, 11.0, 263.0, 20.0 ],
					"text" : "1 . Open the Max Console. ->  "
				}

			}
, 			{
				"box" : 				{
					"format" : 6,
					"id" : "obj-28",
					"maxclass" : "flonum",
					"numinlets" : 1,
					"numoutlets" : 2,
					"outlettype" : [ "", "bang" ],
					"parameter_enable" : 0,
					"patching_rect" : [ 104.0, 437.0, 50.0, 22.0 ]
				}

			}
, 			{
				"box" : 				{
					"id" : "obj-26",
					"maxclass" : "newobj",
					"numinlets" : 1,
					"numoutlets" : 1,
					"outlettype" : [ "" ],
					"patching_rect" : [ 104.0, 392.0, 71.0, 22.0 ],
					"text" : "fromsymbol"
				}

			}
, 			{
				"box" : 				{
					"id" : "obj-23",
					"maxclass" : "newobj",
					"numinlets" : 3,
					"numoutlets" : 1,
					"outlettype" : [ "int" ],
					"patching_rect" : [ 104.0, 348.0, 40.0, 22.0 ],
					"text" : "itoa"
				}

			}
, 			{
				"box" : 				{
					"id" : "obj-21",
					"maxclass" : "newobj",
					"numinlets" : 2,
					"numoutlets" : 2,
					"outlettype" : [ "", "" ],
					"patching_rect" : [ 104.0, 308.0, 75.0, 22.0 ],
					"text" : "zl group 100"
				}

			}
, 			{
				"box" : 				{
					"id" : "obj-19",
					"maxclass" : "newobj",
					"numinlets" : 3,
					"numoutlets" : 3,
					"outlettype" : [ "bang", "bang", "" ],
					"patching_rect" : [ 99.0, 270.0, 57.0, 22.0 ],
					"text" : "sel 13 10"
				}

			}
, 			{
				"box" : 				{
					"id" : "obj-18",
					"maxclass" : "message",
					"numinlets" : 2,
					"numoutlets" : 1,
					"outlettype" : [ "" ],
					"patching_rect" : [ 170.0, 189.0, 39.0, 22.0 ],
					"text" : "port d"
				}

			}
, 			{
				"box" : 				{
					"id" : "obj-15",
					"maxclass" : "message",
					"numinlets" : 2,
					"numoutlets" : 1,
					"outlettype" : [ "" ],
					"patching_rect" : [ 118.0, 189.0, 39.0, 22.0 ],
					"text" : "port z"
				}

			}
, 			{
				"box" : 				{
					"id" : "obj-11",
					"maxclass" : "message",
					"numinlets" : 2,
					"numoutlets" : 1,
					"outlettype" : [ "" ],
					"patching_rect" : [ 118.0, 128.0, 32.0, 22.0 ],
					"text" : "print"
				}

			}
, 			{
				"box" : 				{
					"id" : "obj-8",
					"maxclass" : "newobj",
					"numinlets" : 1,
					"numoutlets" : 2,
					"outlettype" : [ "int", "" ],
					"patching_rect" : [ 99.0, 234.0, 77.0, 22.0 ],
					"text" : "serial z 9600"
				}

			}
, 			{
				"box" : 				{
					"id" : "obj-7",
					"maxclass" : "newobj",
					"numinlets" : 2,
					"numoutlets" : 2,
					"outlettype" : [ "bang", "" ],
					"patching_rect" : [ 152.0, 159.0, 34.0, 22.0 ],
					"text" : "sel 0"
				}

			}
, 			{
				"box" : 				{
					"id" : "obj-6",
					"maxclass" : "newobj",
					"numinlets" : 2,
					"numoutlets" : 1,
					"outlettype" : [ "bang" ],
					"patching_rect" : [ 42.0, 189.0, 56.0, 22.0 ],
					"text" : "metro 10"
				}

			}
, 			{
				"box" : 				{
					"id" : "obj-5",
					"maxclass" : "toggle",
					"numinlets" : 1,
					"numoutlets" : 1,
					"outlettype" : [ "int" ],
					"parameter_enable" : 0,
					"patching_rect" : [ 42.0, 127.0, 24.0, 24.0 ]
				}

			}
, 			{
				"box" : 				{
					"id" : "obj-4",
					"maxclass" : "newobj",
					"numinlets" : 6,
					"numoutlets" : 1,
					"outlettype" : [ "" ],
					"patching_rect" : [ 510.0, 221.0, 110.0, 22.0 ],
					"text" : "scale 36. 38. 30 68"
				}

			}
, 			{
				"box" : 				{
					"annotation" : "## A spectral delay effect ##",
					"bgmode" : 1,
					"border" : 0,
					"clickthrough" : 0,
					"enablehscroll" : 0,
					"enablevscroll" : 0,
					"id" : "obj-14",
					"lockeddragscroll" : 0,
					"lockedsize" : 0,
					"maxclass" : "bpatcher",
					"name" : "az.sdelayr~.maxpat",
					"numinlets" : 6,
					"numoutlets" : 1,
					"offset" : [ 0.0, 0.0 ],
					"outlettype" : [ "multichannelsignal" ],
					"patching_rect" : [ 510.0, 486.0, 415.0, 156.0 ],
					"prototypename" : "pixl",
					"varname" : "sdelayr",
					"viewvisibility" : 1
				}

			}
, 			{
				"box" : 				{
					"annotation" : "## A polyphonic FM synthesizer ##",
					"bgmode" : 1,
					"border" : 0,
					"clickthrough" : 0,
					"enablehscroll" : 0,
					"enablevscroll" : 0,
					"id" : "obj-25",
					"lockeddragscroll" : 0,
					"lockedsize" : 0,
					"maxclass" : "bpatcher",
					"name" : "az.fmodr~.maxpat",
					"numinlets" : 13,
					"numoutlets" : 1,
					"offset" : [ 0.0, 0.0 ],
					"outlettype" : [ "multichannelsignal" ],
					"patching_rect" : [ 510.0, 284.0, 430.0, 142.0 ],
					"prototypename" : "pixl",
					"varname" : "fmodr",
					"viewvisibility" : 1
				}

			}
, 			{
				"box" : 				{
					"annotation" : "## Output fader ##",
					"bgmode" : 1,
					"border" : 0,
					"clickthrough" : 0,
					"enablehscroll" : 0,
					"enablevscroll" : 0,
					"id" : "obj-24",
					"lockeddragscroll" : 0,
					"lockedsize" : 0,
					"maxclass" : "bpatcher",
					"name" : "az.out~.maxpat",
					"numinlets" : 2,
					"numoutlets" : 0,
					"offset" : [ 0.0, 0.0 ],
					"patching_rect" : [ 510.0, 836.0, 71.0, 277.0 ],
					"prototypename" : "pixl",
					"varname" : "out",
					"viewvisibility" : 1
				}

			}
, 			{
				"box" : 				{
					"annotation" : "## A simple reverberator ##",
					"bgmode" : 1,
					"border" : 0,
					"clickthrough" : 0,
					"enablehscroll" : 0,
					"enablevscroll" : 0,
					"id" : "obj-9",
					"lockeddragscroll" : 0,
					"lockedsize" : 0,
					"maxclass" : "bpatcher",
					"name" : "az.reverber8r~.maxpat",
					"numinlets" : 5,
					"numoutlets" : 1,
					"offset" : [ 0.0, 0.0 ],
					"outlettype" : [ "multichannelsignal" ],
					"patching_rect" : [ 510.0, 686.0, 189.0, 111.0 ],
					"prototypename" : "pixl",
					"varname" : "reverber8r",
					"viewvisibility" : 1
				}

			}
, 			{
				"box" : 				{
					"id" : "obj-22",
					"maxclass" : "number",
					"numinlets" : 1,
					"numoutlets" : 2,
					"outlettype" : [ "", "bang" ],
					"parameter_enable" : 0,
					"patching_rect" : [ 525.0, 104.0, 50.0, 22.0 ]
				}

			}
, 			{
				"box" : 				{
					"id" : "obj-20",
					"maxclass" : "newobj",
					"numinlets" : 2,
					"numoutlets" : 1,
					"outlettype" : [ "" ],
					"patching_rect" : [ 510.0, 161.0, 34.0, 22.0 ],
					"text" : "pack"
				}

			}
, 			{
				"box" : 				{
					"id" : "obj-3",
					"maxclass" : "newobj",
					"numinlets" : 1,
					"numoutlets" : 3,
					"outlettype" : [ "", "int", "int" ],
					"patching_rect" : [ 433.0, 104.0, 61.0, 22.0 ],
					"text" : "change 0."
				}

			}
 ],
		"lines" : [ 			{
				"patchline" : 				{
					"destination" : [ "obj-8", 0 ],
					"midpoints" : [ 127.5, 175.0, 104.0, 175.0, 104.0, 229.0, 108.5, 229.0 ],
					"source" : [ "obj-11", 0 ]
				}

			}
, 			{
				"patchline" : 				{
					"destination" : [ "obj-9", 0 ],
					"source" : [ "obj-14", 0 ]
				}

			}
, 			{
				"patchline" : 				{
					"destination" : [ "obj-8", 0 ],
					"midpoints" : [ 127.5, 214.0, 108.5, 214.0 ],
					"source" : [ "obj-15", 0 ]
				}

			}
, 			{
				"patchline" : 				{
					"destination" : [ "obj-8", 0 ],
					"midpoints" : [ 179.5, 214.0, 167.0, 214.0, 167.0, 226.0, 108.5, 226.0 ],
					"source" : [ "obj-18", 0 ]
				}

			}
, 			{
				"patchline" : 				{
					"destination" : [ "obj-21", 0 ],
					"midpoints" : [ 146.5, 295.0, 113.5, 295.0 ],
					"source" : [ "obj-19", 2 ]
				}

			}
, 			{
				"patchline" : 				{
					"destination" : [ "obj-21", 0 ],
					"midpoints" : [ 108.5, 301.0, 113.5, 301.0 ],
					"source" : [ "obj-19", 0 ]
				}

			}
, 			{
				"patchline" : 				{
					"destination" : [ "obj-4", 0 ],
					"source" : [ "obj-20", 0 ]
				}

			}
, 			{
				"patchline" : 				{
					"destination" : [ "obj-23", 0 ],
					"source" : [ "obj-21", 0 ]
				}

			}
, 			{
				"patchline" : 				{
					"destination" : [ "obj-20", 1 ],
					"source" : [ "obj-22", 0 ]
				}

			}
, 			{
				"patchline" : 				{
					"destination" : [ "obj-26", 0 ],
					"source" : [ "obj-23", 0 ]
				}

			}
, 			{
				"patchline" : 				{
					"destination" : [ "obj-14", 0 ],
					"source" : [ "obj-25", 0 ]
				}

			}
, 			{
				"patchline" : 				{
					"destination" : [ "obj-28", 0 ],
					"source" : [ "obj-26", 0 ]
				}

			}
, 			{
				"patchline" : 				{
					"destination" : [ "obj-3", 0 ],
					"midpoints" : [ 113.5, 471.0, 420.0, 471.0, 420.0, 99.0, 442.5, 99.0 ],
					"source" : [ "obj-28", 0 ]
				}

			}
, 			{
				"patchline" : 				{
					"destination" : [ "obj-20", 0 ],
					"midpoints" : [ 442.5, 147.0, 519.5, 147.0 ],
					"source" : [ "obj-3", 0 ]
				}

			}
, 			{
				"patchline" : 				{
					"destination" : [ "obj-8", 0 ],
					"midpoints" : [ 85.5, 174.0, 108.5, 174.0 ],
					"source" : [ "obj-33", 0 ]
				}

			}
, 			{
				"patchline" : 				{
					"destination" : [ "obj-25", 0 ],
					"source" : [ "obj-4", 0 ]
				}

			}
, 			{
				"patchline" : 				{
					"destination" : [ "obj-6", 0 ],
					"order" : 1,
					"source" : [ "obj-5", 0 ]
				}

			}
, 			{
				"patchline" : 				{
					"destination" : [ "obj-7", 0 ],
					"midpoints" : [ 51.5, 166.0, 137.0, 166.0, 137.0, 154.0, 161.5, 154.0 ],
					"order" : 0,
					"source" : [ "obj-5", 0 ]
				}

			}
, 			{
				"patchline" : 				{
					"destination" : [ "obj-8", 0 ],
					"midpoints" : [ 51.5, 229.0, 108.5, 229.0 ],
					"source" : [ "obj-6", 0 ]
				}

			}
, 			{
				"patchline" : 				{
					"destination" : [ "obj-15", 0 ],
					"midpoints" : [ 161.5, 184.0, 127.5, 184.0 ],
					"source" : [ "obj-7", 0 ]
				}

			}
, 			{
				"patchline" : 				{
					"destination" : [ "obj-18", 0 ],
					"midpoints" : [ 176.5, 184.0, 179.5, 184.0 ],
					"source" : [ "obj-7", 1 ]
				}

			}
, 			{
				"patchline" : 				{
					"destination" : [ "obj-19", 0 ],
					"source" : [ "obj-8", 0 ]
				}

			}
, 			{
				"patchline" : 				{
					"destination" : [ "obj-24", 0 ],
					"source" : [ "obj-9", 0 ]
				}

			}
 ],
		"parameters" : 		{
			"obj-14::obj-10" : [ "feedback", "feedback", 0 ],
			"obj-14::obj-13" : [ "rotate", "rotate", 0 ],
			"obj-14::obj-18" : [ "multislider", "multislider", 0 ],
			"obj-14::obj-20" : [ "pictctrl[17]", "pictctrl[1]", 0 ],
			"obj-14::obj-37" : [ "pictctrl[18]", "pictctrl[1]", 0 ],
			"obj-14::obj-40" : [ "maxtime", "maxtime", 0 ],
			"obj-14::obj-43" : [ "pictctrl[19]", "pictctrl[1]", 0 ],
			"obj-14::obj-45" : [ "wetdry[1]", "wetdry", 0 ],
			"obj-14::obj-53" : [ "pictctrl[16]", "pictctrl", 0 ],
			"obj-14::obj-64" : [ "pictctrl[15]", "pictctrl[1]", 0 ],
			"obj-14::obj-7" : [ "onoff[1]", "onoff", 0 ],
			"obj-24::obj-102" : [ "pictctrl[284]", "pictctrl[1]", 0 ],
			"obj-24::obj-16" : [ "output", "output", 0 ],
			"obj-24::obj-86" : [ "textbutton[1]", "textbutton", 0 ],
			"obj-25::obj-102" : [ "pictctrl[8]", "pictctrl[3]", 0 ],
			"obj-25::obj-105" : [ "pictctrl[14]", "pictctrl[3]", 0 ],
			"obj-25::obj-111" : [ "polyphony-menu", "polyphony-menu", 0 ],
			"obj-25::obj-12" : [ "resetpan", "resetpan", 0 ],
			"obj-25::obj-121" : [ "bend", "bend", 0 ],
			"obj-25::obj-122" : [ "pan", "pan", 0 ],
			"obj-25::obj-127" : [ "vib rate", "rate", 0 ],
			"obj-25::obj-128" : [ "vib depth", "depth", 0 ],
			"obj-25::obj-13" : [ "carrier-waveform", "carwav", 0 ],
			"obj-25::obj-16" : [ "release", "R", 0 ],
			"obj-25::obj-21" : [ "modulation-index", "index", 0 ],
			"obj-25::obj-24" : [ "portamento", "port", 0 ],
			"obj-25::obj-265" : [ "pictctrl[40]", "pictctrl[3]", 0 ],
			"obj-25::obj-269" : [ "pictctrl[39]", "pictctrl[3]", 0 ],
			"obj-25::obj-276" : [ "FreqMode[4]", "FreqMode", 0 ],
			"obj-25::obj-278" : [ "textbutton[3]", "textbutton[1]", 0 ],
			"obj-25::obj-32" : [ "resetbend", "resetbend", 0 ],
			"obj-25::obj-33" : [ "pictctrl[6]", "pictctrl[3]", 0 ],
			"obj-25::obj-5" : [ "attack", "A", 0 ],
			"obj-25::obj-51" : [ "polyphony-val", "polyphony-val", 0 ],
			"obj-25::obj-52" : [ "pictctrl[10]", "pictctrl[3]", 0 ],
			"obj-25::obj-58" : [ "modulator-waveform", "modwav", 0 ],
			"obj-25::obj-6" : [ "decay[1]", "D", 0 ],
			"obj-25::obj-63" : [ "pictctrl[9]", "pictctrl[3]", 0 ],
			"obj-25::obj-66" : [ "pictctrl[11]", "pictctrl[3]", 0 ],
			"obj-25::obj-68" : [ "pictctrl[13]", "pictctrl[3]", 0 ],
			"obj-25::obj-75" : [ "harmonicity-float", "harm", 0 ],
			"obj-25::obj-79" : [ "pictctrl[4]", "pictctrl[3]", 0 ],
			"obj-25::obj-8" : [ "sustain", "S", 0 ],
			"obj-25::obj-82" : [ "harmonicity-int", "harm", 0 ],
			"obj-25::obj-83" : [ "integer-harm-mode", "integer-mode", 0 ],
			"obj-25::obj-88" : [ "pictctrl[5]", "pictctrl[3]", 0 ],
			"obj-25::obj-9" : [ "LFOwave", "LFOwave", 0 ],
			"obj-25::obj-96" : [ "pictctrl[12]", "pictctrl[3]", 0 ],
			"obj-25::obj-99" : [ "pictctrl[7]", "pictctrl[3]", 0 ],
			"obj-9::obj-18" : [ "decay", "decay", 0 ],
			"obj-9::obj-20" : [ "pictctrl[1]", "pictctrl[1]", 0 ],
			"obj-9::obj-26" : [ "cutoff", "cutoff", 0 ],
			"obj-9::obj-31" : [ "wetdry", "wetdry", 0 ],
			"obj-9::obj-4" : [ "pictctrl[3]", "pictctrl[1]", 0 ],
			"obj-9::obj-48" : [ "pictctrl[2]", "pictctrl[2]", 0 ],
			"obj-9::obj-5" : [ "size", "size", 0 ],
			"obj-9::obj-53" : [ "pictctrl", "pictctrl", 0 ],
			"obj-9::obj-7" : [ "onoff", "onoff", 0 ],
			"parameterbanks" : 			{
				"0" : 				{
					"index" : 0,
					"name" : "",
					"parameters" : [ "-", "-", "-", "-", "-", "-", "-", "-" ]
				}

			}
,
			"parameter_overrides" : 			{
				"obj-14::obj-20" : 				{
					"parameter_longname" : "pictctrl[17]"
				}
,
				"obj-14::obj-37" : 				{
					"parameter_longname" : "pictctrl[18]"
				}
,
				"obj-14::obj-43" : 				{
					"parameter_longname" : "pictctrl[19]"
				}
,
				"obj-14::obj-45" : 				{
					"parameter_longname" : "wetdry[1]"
				}
,
				"obj-14::obj-53" : 				{
					"parameter_longname" : "pictctrl[16]"
				}
,
				"obj-14::obj-64" : 				{
					"parameter_longname" : "pictctrl[15]"
				}
,
				"obj-25::obj-105" : 				{
					"parameter_longname" : "pictctrl[14]"
				}
,
				"obj-25::obj-33" : 				{
					"parameter_longname" : "pictctrl[6]"
				}
,
				"obj-25::obj-6" : 				{
					"parameter_longname" : "decay[1]"
				}
,
				"obj-25::obj-63" : 				{
					"parameter_longname" : "pictctrl[9]"
				}
,
				"obj-25::obj-68" : 				{
					"parameter_longname" : "pictctrl[13]"
				}
,
				"obj-25::obj-96" : 				{
					"parameter_longname" : "pictctrl[12]"
				}

			}
,
			"inherited_shortname" : 1
		}
,
		"dependency_cache" : [ 			{
				"name" : "M4L.pan1~.maxpat",
				"bootpath" : "C74:/patchers/m4l/Tools resources",
				"type" : "JSON",
				"implicit" : 1
			}
, 			{
				"name" : "az.audio-left-handler.maxpat",
				"bootpath" : "~/Documents/Max 8/Packages/Auzzie/patchers/utils",
				"patcherrelativepath" : "../../Documents/Max 8/Packages/Auzzie/patchers/utils",
				"type" : "JSON",
				"implicit" : 1
			}
, 			{
				"name" : "az.data-handler.maxpat",
				"bootpath" : "~/Documents/Max 8/Packages/Auzzie/patchers/utils",
				"patcherrelativepath" : "../../Documents/Max 8/Packages/Auzzie/patchers/utils",
				"type" : "JSON",
				"implicit" : 1
			}
, 			{
				"name" : "az.fmodr~.maxpat",
				"bootpath" : "~/Documents/Max 8/Packages/Auzzie/patchers",
				"patcherrelativepath" : "../../Documents/Max 8/Packages/Auzzie/patchers",
				"type" : "JSON",
				"implicit" : 1
			}
, 			{
				"name" : "az.out~.maxpat",
				"bootpath" : "~/Documents/Max 8/Packages/Auzzie/patchers",
				"patcherrelativepath" : "../../Documents/Max 8/Packages/Auzzie/patchers",
				"type" : "JSON",
				"implicit" : 1
			}
, 			{
				"name" : "az.reverber8r~.maxpat",
				"bootpath" : "~/Documents/Max 8/Packages/Auzzie/patchers",
				"patcherrelativepath" : "../../Documents/Max 8/Packages/Auzzie/patchers",
				"type" : "JSON",
				"implicit" : 1
			}
, 			{
				"name" : "az.sdelayr~.maxpat",
				"bootpath" : "~/Documents/Max 8/Packages/Auzzie/patchers",
				"patcherrelativepath" : "../../Documents/Max 8/Packages/Auzzie/patchers",
				"type" : "JSON",
				"implicit" : 1
			}
, 			{
				"name" : "az.spectdelay~.mxo",
				"type" : "iLaX"
			}
, 			{
				"name" : "az.sub-fm-monovoice~.maxpat",
				"bootpath" : "~/Documents/Max 8/Packages/Auzzie/patchers/sub",
				"patcherrelativepath" : "../../Documents/Max 8/Packages/Auzzie/patchers/sub",
				"type" : "JSON",
				"implicit" : 1
			}
, 			{
				"name" : "az.sub-fm-multivoice~.maxpat",
				"bootpath" : "~/Documents/Max 8/Packages/Auzzie/patchers/poly",
				"patcherrelativepath" : "../../Documents/Max 8/Packages/Auzzie/patchers/poly",
				"type" : "JSON",
				"implicit" : 1
			}
, 			{
				"name" : "az.sub-fm~.maxpat",
				"bootpath" : "~/Documents/Max 8/Packages/Auzzie/patchers/sub",
				"patcherrelativepath" : "../../Documents/Max 8/Packages/Auzzie/patchers/sub",
				"type" : "JSON",
				"implicit" : 1
			}
, 			{
				"name" : "az.sub-listconform.js",
				"bootpath" : "~/Documents/Max 8/Packages/Auzzie/javascript",
				"patcherrelativepath" : "../../Documents/Max 8/Packages/Auzzie/javascript",
				"type" : "TEXT",
				"implicit" : 1
			}
, 			{
				"name" : "az.sub-simpleFM~.maxpat",
				"bootpath" : "~/Documents/Max 8/Packages/Auzzie/patchers/sub",
				"patcherrelativepath" : "../../Documents/Max 8/Packages/Auzzie/patchers/sub",
				"type" : "JSON",
				"implicit" : 1
			}
, 			{
				"name" : "az.sub-wavetables2~.maxpat",
				"bootpath" : "~/Documents/Max 8/Packages/Auzzie/patchers/sub",
				"patcherrelativepath" : "../../Documents/Max 8/Packages/Auzzie/patchers/sub",
				"type" : "JSON",
				"implicit" : 1
			}
, 			{
				"name" : "az.sub-wavetables~.maxpat",
				"bootpath" : "~/Documents/Max 8/Packages/Auzzie/patchers/sub",
				"patcherrelativepath" : "../../Documents/Max 8/Packages/Auzzie/patchers/sub",
				"type" : "JSON",
				"implicit" : 1
			}
, 			{
				"name" : "az.sub-xfade~.maxpat",
				"bootpath" : "~/Documents/Max 8/Packages/Auzzie/patchers/sub",
				"patcherrelativepath" : "../../Documents/Max 8/Packages/Auzzie/patchers/sub",
				"type" : "JSON",
				"implicit" : 1
			}
, 			{
				"name" : "az.sub-yafr2~.maxpat",
				"bootpath" : "~/Documents/Max 8/Packages/Auzzie/patchers/sub",
				"patcherrelativepath" : "../../Documents/Max 8/Packages/Auzzie/patchers/sub",
				"type" : "JSON",
				"implicit" : 1
			}
, 			{
				"name" : "az.wave-sawdown.svg",
				"bootpath" : "~/Documents/Max 8/Packages/Auzzie/media",
				"patcherrelativepath" : "../../Documents/Max 8/Packages/Auzzie/media",
				"type" : "svg",
				"implicit" : 1
			}
, 			{
				"name" : "az.wave-sawup.svg",
				"bootpath" : "~/Documents/Max 8/Packages/Auzzie/media",
				"patcherrelativepath" : "../../Documents/Max 8/Packages/Auzzie/media",
				"type" : "svg",
				"implicit" : 1
			}
, 			{
				"name" : "az.wave-sine.svg",
				"bootpath" : "~/Documents/Max 8/Packages/Auzzie/media",
				"patcherrelativepath" : "../../Documents/Max 8/Packages/Auzzie/media",
				"type" : "svg",
				"implicit" : 1
			}
, 			{
				"name" : "az.wave-square.svg",
				"bootpath" : "~/Documents/Max 8/Packages/Auzzie/media",
				"patcherrelativepath" : "../../Documents/Max 8/Packages/Auzzie/media",
				"type" : "svg",
				"implicit" : 1
			}
, 			{
				"name" : "az.wave-triangle.svg",
				"bootpath" : "~/Documents/Max 8/Packages/Auzzie/media",
				"patcherrelativepath" : "../../Documents/Max 8/Packages/Auzzie/media",
				"type" : "svg",
				"implicit" : 1
			}
 ],
		"autosave" : 0
	}

}
